{
  "accessors": [
    {
      "bufferView": 2,
      "componentType": 5126,
      "count": 4495,
      "max": [
        0.6896324157714844,
        0.9545432925224304,
        1.004703164100647
      ],
      "min": [
        -0.6877681016921997,
        -0.7242174744606018,
        -0.8095687031745911
      ],
      "type": "VEC3"
    },
    {
      "bufferView": 2,
      "byteOffset": 53940,
      "componentType": 5126,
      "count": 4495,
      "max": [
        0.9997536540031433,
        0.9993106722831726,
        0.9978194832801819
      ],
      "min": [
        -0.9997531175613403,
        -0.9993079304695129,
        -0.9978107810020447
      ],
      "type": "VEC3"
    },
    {
      "bufferView": 1,
      "componentType": 5126,
      "count": 4495,
      "max": [
        0.0,
        0.0
      ],
      "min": [
        0.0,
        0.0
      ],
      "type": "VEC2"
    },
    {
      "bufferView": 0,
      "componentType": 5125,
      "count": 25428,
      "type": "SCALAR"
    },
    {
      "bufferView": 2,
      "byteOffset": 107880,
      "componentType": 5126,
      "count": 6946,
      "max": [
        0.7434344291687012,
        0.3138785660266876,
        -0.1018894836306572
      ],
      "min": [
        -0.7434508800506592,
        -0.6676082015037537,
        -0.9880987405776978
      ],
      "type": "VEC3"
    },
    {
      "bufferView": 2,
      "byteOffset": 191232,
      "componentType": 5126,
      "count": 6946,
      "max": [
        1.0,
        0.999589204788208,
        0.9996591806411743
      ],
      "min": [
        -1.0,
        -0.9996291995048523,
        -0.999629020690918
      ],
      "type": "VEC3"
    },
    {
      "bufferView": 1,
      "byteOffset": 35960,
      "componentType": 5126,
      "count": 6946,
      "max": [
        1.0062520503997803,
        1.0149407386779785
      ],
      "min": [
        -0.001913221669383347,
        -7.064318197080866e-08
      ],
      "type": "VEC2"
    },
    {
      "bufferView": 0,
      "byteOffset": 101712,
      "componentType": 5125,
      "count": 25248,
      "type": "SCALAR"
    },
    {
      "bufferView": 2,
      "byteOffset": 274584,
      "componentType": 5126,
      "count": 17974,
      "max": [
        0.9310994744300842,
        0.9820166826248169,
        1.1263478994369507
      ],
      "min": [
        -0.9310994744300842,
        -0.12420283257961273,
        -0.1759566068649292
      ],
      "type": "VEC3"
    },
    {
      "bufferView": 2,
      "byteOffset": 490272,
      "componentType": 5126,
      "count": 17974,
      "max": [
        1.0,
        1.0,
        1.0
      ],
      "min": [
        -1.0,
        -1.0,
        -1.0
      ],
      "type": "VEC3"
    },
    {
      "bufferView": 1,
      "byteOffset": 91528,
      "componentType": 5126,
      "count": 17974,
      "max": [
        1.0000094175338745,
        1.0037575960159302
      ],
      "min": [
        -0.0011341689387336373,
        -0.0026842504739761353
      ],
      "type": "VEC2"
    },
    {
      "bufferView": 0,
      "byteOffset": 202704,
      "componentType": 5125,
      "count": 78429,
      "type": "SCALAR"
    },
    {
      "bufferView": 2,
      "byteOffset": 705960,
      "componentType": 5126,
      "count": 910,
      "max": [
        0.023266451433300972,
        0.46586328744888306,
        1.1476765871047974
      ],
      "min": [
        -1.2737503051757813,
        -0.016449464485049248,
        2.0364623765090073e-08
      ],
      "type": "VEC3"
    },
    {
      "bufferView": 2,
      "byteOffset": 716880,
      "componentType": 5126,
      "count": 910,
      "max": [
        1.0,
        0.9998189210891724,
        0.9991793036460876
      ],
      "min": [
        -1.0,
        -0.9998189210891724,
        -1.0
      ],
      "type": "VEC3"
    },
    {
      "bufferView": 1,
      "byteOffset": 235320,
      "componentType": 5126,
      "count": 910,
      "max": [
        1.0004160404205322,
        1.0004160404205322
      ],
      "min": [
        -0.0004158593947067857,
        -0.0004158473457209766
      ],
      "type": "VEC2"
    },
    {
      "bufferView": 0,
      "byteOffset": 516420,
      "componentType": 5125,
      "count": 4968,
      "type": "SCALAR"
    }
  ],
  "asset": {
    "extras": {
      "author": "Whiskey Dog (https://sketchfab.com/WhiskeyDogg)",
      "license": "CC-BY-4.0 (http://creativecommons.org/licenses/by/4.0/)",
      "source": "https://sketchfab.com/3d-models/sci-fi-helm-1ec3097c913149508660db861ee1f628",
      "title": "Sci Fi Helm"
    },
    "generator": "Sketchfab-12.66.0",
    "version": "2.0"
  },
  "bufferViews": [
    {
      "buffer": 0,
      "byteLength": 536292,
      "name": "floatBufferViews",
      "target": 34963
    },
    {
      "buffer": 0,
      "byteLength": 242600,
      "byteOffset": 536292,
      "byteStride": 8,
      "name": "floatBufferViews",
      "target": 34962
    },
    {
      "buffer": 0,
      "byteLength": 727800,
      "byteOffset": 778892,
      "byteStride": 12,
      "name": "floatBufferViews",
      "target": 34962
    }
  ],
  "buffers": [
    {
      "byteLength": 1506692,
      "uri": "scene.bin"
    }
  ],
  "materials": [
    {
      "doubleSided": true,
      "name": "Plane__0",
      "pbrMetallicRoughness": {
        "metallicFactor": 0.0,
        "roughnessFactor": 0.6
      }
    },
    {
      "doubleSided": true,
      "name": "Material",
      "pbrMetallicRoughness": {
        "baseColorFactor": [
          0.8,
          0.8,
          0.8,
          1.0
        ],
        "metallicFactor": 0.0,
        "roughnessFactor": 0.09229999817585943
      }
    }
  ],
  "meshes": [
    {
      "name": "Cube.002_Material_0",
      "primitives": [
        {
          "attributes": {
            "NORMAL": 1,
            "POSITION": 0,
            "TEXCOORD_0": 2
          },
          "indices": 3,
          "material": 1,
          "mode": 4
        }
      ]
    },
    {
      "name": "Plane__0",
      "primitives": [
        {
          "attributes": {
            "NORMAL": 5,
            "POSITION": 4,
            "TEXCOORD_0": 6
          },
          "indices": 7,
          "material": 0,
          "mode": 4
        }
      ]
    },
    {
      "name": "Circle__0",
      "primitives": [
        {
          "attributes": {
            "NORMAL": 9,
            "POSITION": 8,
            "TEXCOORD_0": 10
          },
          "indices": 11,
          "material": 0,
          "mode": 4
        }
      ]
    },
    {
      "name": "Circle.002__0",
      "primitives": [
        {
          "attributes": {
            "NORMAL": 13,
            "POSITION": 12,
            "TEXCOORD_0": 14
          },
          "indices": 15,
          "material": 0,
          "mode": 4
        }
      ]
    }
  ],
  "nodes": [
    {
      "children": [
        1
      ],
      "matrix": [
        1.0,
        0.0,
        0.0,
        0.0,
        0.0,
        2.220446049250313e-16,
        -1.0,
        0.0,
        0.0,
        1.0,
        2.220446049250313e-16,
        0.0,
        0.0,
        0.0,
        0.0,
        1.0
      ],
      "name": "Sketchfab_model"
    },
    {
      "children": [
        2
      ],
      "matrix": [
        1.0,
        0.0,
        0.0,
        0.0,
        0.0,
        0.0,
        1.0,
        0.0,
        0.0,
        -1.0,
        0.0,
        0.0,
        0.0,
        0.0,
        0.0,
        1.0
      ],
      "name": "9c7b2b43194a4478b3c3d6cee2f8b8f8.fbx"
    },
    {
      "children": [
        3,
        5,
        7,
        9
      ],
      "name": "RootNode"
    },
    {
      "children": [
        4
      ],
      "matrix": [
        100.0,
        0.0,
        0.0,
        0.0,
        0.0,
        -1.629206793918314e-05,
        -99.99999999999868,
        0.0,
        0.0,
        99.99999999999868,
        -1.629206793918314e-05,
        0.0,
        0.0,
        0.0,
        0.0,
        1.0
      ],
      "name": "Cube.002"
    },
    {
      "mesh": 0,
      "name": "Cube.002_Material_0"
    },
    {
      "children": [
        6
      ],
      "matrix": [
        100.0,
        0.0,
        0.0,
        0.0,
        0.0,
        -1.629206793918314e-05,
        -99.99999999999868,
        0.0,
        0.0,
        99.99999999999868,
        -1.629206793918314e-05,
        0.0,
        0.0,
        0.0,
        0.0,
        1.0
      ],
      "name": "Plane"
    },
    {
      "mesh": 1,
      "name": "Plane__0"
    },
    {
      "children": [
        8
      ],
      "matrix": [
        100.0,
        0.0,
        0.0,
        0.0,
        0.0,
        -1.629206793918314e-05,
        -99.99999999999868,
        0.0,
        0.0,
        99.99999999999868,
        -1.629206793918314e-05,
        0.0,
        0.0,
        -7.495339393615723,
        0.0,
        1.0
      ],
      "name": "Circle"
    },
    {
      "mesh": 2,
      "name": "Circle__0"
    },
    {
      "children": [
        10
      ],
      "matrix": [
        122.04551696777344,
        0.0,
        0.0,
        0.0,
        0.0,
        -1.9883738541116937e-05,
        -122.04551696777183,
        0.0,
        0.0,
        122.04551696777183,
        -1.9883738541116937e-05,
        0.0,
        76.30797576904297,
        34.04408264160156,
        -18.950902938842773,
        1.0
      ],
      "name": "Circle.002"
    },
    {
      "mesh": 3,
      "name": "Circle.002__0"
    }
  ],
  "scene": 0,
  "scenes": [
    {
      "name": "Sketchfab_Scene",
      "nodes": [
        0
      ]
    }
  ]
}
